<mxfile host="app.diagrams.net" modified="2024-06-10T15:21:44.573Z" agent="Mozilla/5.0 (Windows NT 10.0; Win64; x64) AppleWebKit/537.36 (KHTML, like Gecko) Chrome/125.0.0.0 Safari/537.36" etag="wbDhgQsgrzLWtP1hqP3O" version="24.5.2" type="github">
  <diagram name="Page-1" id="5f0bae14-7c28-e335-631c-24af17079c00">
    <mxGraphModel dx="1434" dy="1588" grid="1" gridSize="10" guides="1" tooltips="1" connect="1" arrows="1" fold="1" page="1" pageScale="1" pageWidth="1100" pageHeight="850" background="none" math="0" shadow="0">
      <root>
        <mxCell id="0" />
        <mxCell id="1" parent="0" />
        <mxCell id="MkM6GHYV5-4amN7yCKQ7-11" value="Blob storage" style="shape=cylinder3;whiteSpace=wrap;html=1;boundedLbl=1;backgroundOutline=1;size=15;" vertex="1" parent="1">
          <mxGeometry x="760" y="-440" width="60" height="80" as="geometry" />
        </mxCell>
        <mxCell id="MkM6GHYV5-4amN7yCKQ7-12" value="RDBMS" style="shape=datastore;whiteSpace=wrap;html=1;" vertex="1" parent="1">
          <mxGeometry x="525" y="-430" width="60" height="60" as="geometry" />
        </mxCell>
        <mxCell id="MkM6GHYV5-4amN7yCKQ7-14" value="To save user information&lt;br&gt;we will have a lot of reads and some writes&lt;br&gt;&lt;div&gt;- UserId&lt;/div&gt;" style="text;html=1;align=center;verticalAlign=middle;resizable=0;points=[];autosize=1;strokeColor=none;fillColor=none;" vertex="1" parent="1">
          <mxGeometry x="430" y="-370" width="250" height="60" as="geometry" />
        </mxCell>
        <mxCell id="MkM6GHYV5-4amN7yCKQ7-15" value="Blob storage to store the photos&amp;nbsp;&lt;div&gt;and videos of the user&lt;/div&gt;" style="text;html=1;align=center;verticalAlign=middle;resizable=0;points=[];autosize=1;strokeColor=none;fillColor=none;" vertex="1" parent="1">
          <mxGeometry x="700" y="-357" width="200" height="40" as="geometry" />
        </mxCell>
        <mxCell id="MkM6GHYV5-4amN7yCKQ7-22" value="" style="edgeStyle=orthogonalEdgeStyle;rounded=0;orthogonalLoop=1;jettySize=auto;html=1;" edge="1" parent="1" source="MkM6GHYV5-4amN7yCKQ7-16" target="MkM6GHYV5-4amN7yCKQ7-20">
          <mxGeometry relative="1" as="geometry" />
        </mxCell>
        <mxCell id="MkM6GHYV5-4amN7yCKQ7-16" value="" style="outlineConnect=0;dashed=0;verticalLabelPosition=bottom;verticalAlign=top;align=center;html=1;shape=mxgraph.aws3.classic_load_balancer;fillColor=#F58534;gradientColor=none;" vertex="1" parent="1">
          <mxGeometry x="410" y="-700" width="69" height="72" as="geometry" />
        </mxCell>
        <mxCell id="MkM6GHYV5-4amN7yCKQ7-19" value="" style="edgeStyle=orthogonalEdgeStyle;rounded=0;orthogonalLoop=1;jettySize=auto;html=1;" edge="1" parent="1" source="MkM6GHYV5-4amN7yCKQ7-17" target="MkM6GHYV5-4amN7yCKQ7-16">
          <mxGeometry relative="1" as="geometry" />
        </mxCell>
        <mxCell id="MkM6GHYV5-4amN7yCKQ7-17" value="Web App" style="html=1;dropTarget=0;whiteSpace=wrap;" vertex="1" parent="1">
          <mxGeometry x="130" y="-709" width="180" height="90" as="geometry" />
        </mxCell>
        <mxCell id="MkM6GHYV5-4amN7yCKQ7-18" value="" style="shape=module;jettyWidth=8;jettyHeight=4;" vertex="1" parent="MkM6GHYV5-4amN7yCKQ7-17">
          <mxGeometry x="1" width="20" height="20" relative="1" as="geometry">
            <mxPoint x="-27" y="7" as="offset" />
          </mxGeometry>
        </mxCell>
        <mxCell id="MkM6GHYV5-4amN7yCKQ7-39" value="" style="edgeStyle=orthogonalEdgeStyle;rounded=0;orthogonalLoop=1;jettySize=auto;html=1;" edge="1" parent="1" source="MkM6GHYV5-4amN7yCKQ7-20" target="MkM6GHYV5-4amN7yCKQ7-38">
          <mxGeometry relative="1" as="geometry" />
        </mxCell>
        <mxCell id="MkM6GHYV5-4amN7yCKQ7-20" value="Web App" style="html=1;dropTarget=0;whiteSpace=wrap;" vertex="1" parent="1">
          <mxGeometry x="540" y="-709" width="180" height="90" as="geometry" />
        </mxCell>
        <mxCell id="MkM6GHYV5-4amN7yCKQ7-21" value="" style="shape=module;jettyWidth=8;jettyHeight=4;" vertex="1" parent="MkM6GHYV5-4amN7yCKQ7-20">
          <mxGeometry x="1" width="20" height="20" relative="1" as="geometry">
            <mxPoint x="-27" y="7" as="offset" />
          </mxGeometry>
        </mxCell>
        <mxCell id="MkM6GHYV5-4amN7yCKQ7-23" value="Web App" style="html=1;dropTarget=0;whiteSpace=wrap;" vertex="1" parent="1">
          <mxGeometry x="550" y="-699" width="180" height="90" as="geometry" />
        </mxCell>
        <mxCell id="MkM6GHYV5-4amN7yCKQ7-24" value="" style="shape=module;jettyWidth=8;jettyHeight=4;" vertex="1" parent="MkM6GHYV5-4amN7yCKQ7-23">
          <mxGeometry x="1" width="20" height="20" relative="1" as="geometry">
            <mxPoint x="-27" y="7" as="offset" />
          </mxGeometry>
        </mxCell>
        <mxCell id="MkM6GHYV5-4amN7yCKQ7-34" value="" style="edgeStyle=orthogonalEdgeStyle;rounded=0;orthogonalLoop=1;jettySize=auto;html=1;entryX=0.5;entryY=0;entryDx=0;entryDy=0;entryPerimeter=0;" edge="1" parent="1" source="MkM6GHYV5-4amN7yCKQ7-25" target="MkM6GHYV5-4amN7yCKQ7-11">
          <mxGeometry relative="1" as="geometry">
            <mxPoint x="650" y="-519" as="targetPoint" />
          </mxGeometry>
        </mxCell>
        <mxCell id="MkM6GHYV5-4amN7yCKQ7-37" value="" style="edgeStyle=orthogonalEdgeStyle;rounded=0;orthogonalLoop=1;jettySize=auto;html=1;entryX=0.5;entryY=0;entryDx=0;entryDy=0;" edge="1" parent="1" source="MkM6GHYV5-4amN7yCKQ7-25" target="MkM6GHYV5-4amN7yCKQ7-12">
          <mxGeometry relative="1" as="geometry">
            <mxPoint x="650" y="-519" as="targetPoint" />
          </mxGeometry>
        </mxCell>
        <mxCell id="MkM6GHYV5-4amN7yCKQ7-46" style="edgeStyle=orthogonalEdgeStyle;rounded=0;orthogonalLoop=1;jettySize=auto;html=1;entryX=0.5;entryY=0;entryDx=0;entryDy=0;" edge="1" parent="1" source="MkM6GHYV5-4amN7yCKQ7-25" target="MkM6GHYV5-4amN7yCKQ7-45">
          <mxGeometry relative="1" as="geometry" />
        </mxCell>
        <mxCell id="MkM6GHYV5-4amN7yCKQ7-25" value="Web App" style="html=1;dropTarget=0;whiteSpace=wrap;" vertex="1" parent="1">
          <mxGeometry x="560" y="-689" width="180" height="90" as="geometry" />
        </mxCell>
        <mxCell id="MkM6GHYV5-4amN7yCKQ7-26" value="" style="shape=module;jettyWidth=8;jettyHeight=4;" vertex="1" parent="MkM6GHYV5-4amN7yCKQ7-25">
          <mxGeometry x="1" width="20" height="20" relative="1" as="geometry">
            <mxPoint x="-27" y="7" as="offset" />
          </mxGeometry>
        </mxCell>
        <mxCell id="MkM6GHYV5-4amN7yCKQ7-38" value="CDN" style="rounded=0;whiteSpace=wrap;html=1;" vertex="1" parent="1">
          <mxGeometry x="570" y="-830" width="120" height="60" as="geometry" />
        </mxCell>
        <mxCell id="MkM6GHYV5-4amN7yCKQ7-40" value="We could use a redirect to CDN or the web app would check first on the CDN" style="text;html=1;align=center;verticalAlign=middle;resizable=0;points=[];autosize=1;strokeColor=none;fillColor=none;" vertex="1" parent="1">
          <mxGeometry x="425" y="-752" width="430" height="30" as="geometry" />
        </mxCell>
        <mxCell id="MkM6GHYV5-4amN7yCKQ7-41" value="We could also have cache on different levels :&lt;div&gt;Memory, Redis cache in CDN or in the WebApp it self&lt;/div&gt;" style="text;html=1;align=center;verticalAlign=middle;resizable=0;points=[];autosize=1;strokeColor=none;fillColor=none;" vertex="1" parent="1">
          <mxGeometry x="760" y="-699" width="310" height="40" as="geometry" />
        </mxCell>
        <mxCell id="MkM6GHYV5-4amN7yCKQ7-43" style="edgeStyle=orthogonalEdgeStyle;rounded=0;orthogonalLoop=1;jettySize=auto;html=1;entryX=0.5;entryY=0;entryDx=0;entryDy=0;" edge="1" parent="1" source="MkM6GHYV5-4amN7yCKQ7-25" target="MkM6GHYV5-4amN7yCKQ7-49">
          <mxGeometry relative="1" as="geometry">
            <mxPoint x="320" y="-410" as="targetPoint" />
            <Array as="points">
              <mxPoint x="490" y="-644" />
              <mxPoint x="490" y="-510" />
              <mxPoint x="320" y="-510" />
            </Array>
          </mxGeometry>
        </mxCell>
        <mxCell id="MkM6GHYV5-4amN7yCKQ7-44" value="We store information about user friends&amp;nbsp;" style="text;html=1;align=center;verticalAlign=middle;resizable=0;points=[];autosize=1;strokeColor=none;fillColor=none;" vertex="1" parent="1">
          <mxGeometry x="180" y="-355" width="240" height="30" as="geometry" />
        </mxCell>
        <mxCell id="MkM6GHYV5-4amN7yCKQ7-45" value="Elastic search" style="shape=datastore;whiteSpace=wrap;html=1;" vertex="1" parent="1">
          <mxGeometry x="950" y="-520" width="60" height="60" as="geometry" />
        </mxCell>
        <mxCell id="MkM6GHYV5-4amN7yCKQ7-47" value="Store events, about X person upload a phone&amp;nbsp;&lt;br&gt;recently with ID 1234" style="text;html=1;align=center;verticalAlign=middle;resizable=0;points=[];autosize=1;strokeColor=none;fillColor=none;" vertex="1" parent="1">
          <mxGeometry x="855" y="-450" width="270" height="40" as="geometry" />
        </mxCell>
        <mxCell id="MkM6GHYV5-4amN7yCKQ7-48" value="user id&amp;nbsp;&lt;br&gt;people that is following :" style="text;html=1;align=center;verticalAlign=middle;resizable=0;points=[];autosize=1;strokeColor=none;fillColor=none;" vertex="1" parent="1">
          <mxGeometry x="180" y="-330" width="150" height="40" as="geometry" />
        </mxCell>
        <mxCell id="MkM6GHYV5-4amN7yCKQ7-49" value="RDBMS" style="shape=datastore;whiteSpace=wrap;html=1;" vertex="1" parent="1">
          <mxGeometry x="300" y="-425" width="60" height="60" as="geometry" />
        </mxCell>
      </root>
    </mxGraphModel>
  </diagram>
</mxfile>
